HIERARCHY
ROOT Hips
{
	OFFSET 0.00 0.00 0.00
	CHANNELS 6 Xposition Yposition Zposition Yrotation Xrotation Zrotation
	JOINT Spine
	{
		OFFSET	0.0000	9.2263	1.5771
		CHANNELS 3 Xrotation Yrotation Zrotation
		JOINT Spine1
		{
			OFFSET	0.0000	16.2540	-0.1656
			CHANNELS 3 Xrotation Yrotation Zrotation
			JOINT Spine2
			{
				OFFSET	0.0000	13.6396	-1.2923
				CHANNELS 3 Xrotation Yrotation Zrotation
				JOINT Neck
				{
					OFFSET	0.0000	13.8774	-4.3542
					CHANNELS 3 Xrotation Yrotation Zrotation
					JOINT Neck1
					{
						OFFSET	0.0000	4.3400	0.9269
						CHANNELS 3 Xrotation Yrotation Zrotation
						JOINT Head
						{
							OFFSET	0.0000	4.0266	0.8585
							CHANNELS 3 Xrotation Yrotation Zrotation
							End Site
							{
								OFFSET 0.0000 23.0297 0.1231
							}
						}
					}
				}
				JOINT LeftShoulder
				{
					OFFSET	6.1442	10.1870	-3.7932
					CHANNELS 3 Zrotation Xrotation Yrotation
					JOINT LeftArm
					{
						OFFSET	12.3191	-1.1130	-1.7935
						CHANNELS 3 Zrotation Xrotation Yrotation
						JOINT LeftForeArm
						{
							OFFSET	27.6870	0.0000	0.0000
							CHANNELS 3 Xrotation Zrotation Yrotation
							JOINT LeftHand
							{
								OFFSET	27.8738	0.0000	0.0000
								CHANNELS 3 Zrotation Yrotation Xrotation
								JOINT LeftHandThumb1
								{
									OFFSET	2.3785	-1.0029	2.6209
									CHANNELS 3 Zrotation Xrotation Yrotation
									JOINT LeftHandThumb2
									{
										OFFSET	3.3624	-1.0029	2.8398
										CHANNELS 3 Zrotation Xrotation Yrotation
										JOINT LeftHandThumb3
										{
											OFFSET	4.5018	-1.3445	2.1783
											CHANNELS 3 Zrotation Xrotation Yrotation
											End Site
											{
												OFFSET 2.6000 -1.0000 1.0000
											}
										}
									}
								}
								JOINT LeftHandMiddle1
								{
									OFFSET	10.4639	0.6148	0.4298
									CHANNELS 3 Zrotation Xrotation Yrotation
									JOINT LeftHandMiddle2
									{
										OFFSET	5.7921	0.0000	0.0000
										CHANNELS 3 Zrotation Xrotation Yrotation
										JOINT LeftHandMiddle3
										{
											OFFSET	3.7132	0.0000	0.0000
											CHANNELS 3 Zrotation Xrotation Yrotation
											End Site
											{
												OFFSET 2.3000 0.0000 0.0000
											}
										}
									}
								}
								JOINT LeftHandIndex1
								{
									OFFSET	10.3945	0.6148	2.7055
									CHANNELS 3 Zrotation Xrotation Yrotation
									JOINT LeftHandIndex2
									{
										OFFSET	5.5493	0.0000	0.0000
										CHANNELS 3 Zrotation Xrotation Yrotation
										JOINT LeftHandIndex3
										{
											OFFSET	3.3911	0.0000	0.0000
											CHANNELS 3 Zrotation Xrotation Yrotation
											End Site
											{
												OFFSET 2.5000 0.0000 0.0000
											}
										}
									}
								}
								JOINT LeftHandRing1
								{
									OFFSET	10.3252	0.3211	-1.8755
									CHANNELS 3 Zrotation Xrotation Yrotation
									JOINT LeftHandRing2
									{
										OFFSET	5.4452	0.0000	0.0000
										CHANNELS 3 Zrotation Xrotation Yrotation
										JOINT LeftHandRing3
										{
											OFFSET	3.7132	0.0000	0.0000
											CHANNELS 3 Zrotation Xrotation Yrotation
											End Site
											{
												OFFSET 2.0000 0.0000 0.0000
											}
										}
									}
								}
								JOINT LeftHandPinky1
								{
									OFFSET	10.0130	-0.0783	-3.9671
									CHANNELS 3 Zrotation Xrotation Yrotation
									JOINT LeftHandPinky2
									{
										OFFSET	3.6763	0.0000	0.0000
										CHANNELS 3 Zrotation Xrotation Yrotation
										JOINT LeftHandPinky3
										{
											OFFSET	2.8113	0.0000	0.0000
											CHANNELS 3 Zrotation Xrotation Yrotation
											End Site
											{
												OFFSET 2.9000 0.0000 0.0000
											}
										}
									}
								}
							}
						}
					}
				}
				JOINT RightShoulder
				{
					OFFSET	-6.1402	10.1870	-3.7932
					CHANNELS 3 Zrotation Xrotation Yrotation
					JOINT RightArm
					{
						OFFSET	-12.3231	-1.1130	-1.7935
						CHANNELS 3 Zrotation Xrotation Yrotation
						JOINT RightForeArm
						{
							OFFSET	-27.6870	0.0000	0.0000
							CHANNELS 3 Xrotation Zrotation Yrotation
							JOINT RightHand
							{
								OFFSET	-27.8738	0.0000	0.0000
								CHANNELS 3 Zrotation Yrotation Xrotation
								JOINT RightHandThumb1
								{
									OFFSET	-2.5178	-0.9367	2.5137
									CHANNELS 3 Zrotation Xrotation Yrotation
									JOINT RightHandThumb2
									{
										OFFSET	-3.2638	-1.0870	2.9669
										CHANNELS 3 Zrotation Xrotation Yrotation
										JOINT RightHandThumb3
										{
											OFFSET	-4.4165	-1.3703	2.1350
											CHANNELS 3 Zrotation Xrotation Yrotation
											End Site
											{
												OFFSET -2.6000 -1.0000 1.0000
											}
										}
									}
								}
								JOINT RightHandIndex1
								{
									OFFSET	-10.4665	0.4896	2.7120
									CHANNELS 3 Zrotation Xrotation Yrotation
									JOINT RightHandIndex2
									{
										OFFSET	-5.3768	0.0000	0.0000
										CHANNELS 3 Zrotation Xrotation Yrotation
										JOINT RightHandIndex3
										{
											OFFSET	-3.3855	0.0000	0.0000
											CHANNELS 3 Zrotation Xrotation Yrotation
											End Site
											{
												OFFSET -2.6000 0.0000 0.0000
											}
										}
									}
								}
								JOINT RightHandMiddle1
								{
									OFFSET	-10.7596	0.4896	0.4278
									CHANNELS 3 Zrotation Xrotation Yrotation
									JOINT RightHandMiddle2
									{
										OFFSET	-5.6168	0.0000	0.0000
										CHANNELS 3 Zrotation Xrotation Yrotation
										JOINT RightHandMiddle3
										{
											OFFSET	-3.7364	0.0000	0.0000
											CHANNELS 3 Zrotation Xrotation Yrotation
											End Site
											{
												OFFSET -2.3000 0.0000 0.0000
											}
										}
									}
								}
								JOINT RightHandRing1
								{
									OFFSET	-10.4702	0.3879	-1.9363
									CHANNELS 3 Zrotation Xrotation Yrotation
									JOINT RightHandRing2
									{
										OFFSET	-5.4013	0.0000	0.0000
										CHANNELS 3 Zrotation Xrotation Yrotation
										JOINT RightHandRing3
										{
											OFFSET	-3.3916	0.0000	0.0000
											CHANNELS 3 Zrotation Xrotation Yrotation
											End Site
											{
												OFFSET -2.2000 0.0000 0.0000
											}
										}
									}
								}
								JOINT RightHandPinky1
								{
									OFFSET	-9.9715	-0.1191	-3.9540
									CHANNELS 3 Zrotation Xrotation Yrotation
									JOINT RightHandPinky2
									{
										OFFSET	-3.6528	0.0000	0.0000
										CHANNELS 3 Zrotation Xrotation Yrotation
										JOINT RightHandPinky3
										{
											OFFSET	-2.7820	0.0000	0.0000
											CHANNELS 3 Zrotation Xrotation Yrotation
											End Site
											{
												OFFSET -2.9000 0.0000 0.0000
											}
										}
									}
								}
							}
						}
					}
				}
			}
		}
	}
	JOINT LeftUpLeg
	{
		OFFSET	9.6338	-3.2733	0.0000
		CHANNELS 3 Xrotation Yrotation Zrotation
		JOINT LeftLeg
		{
			OFFSET	0.0000	-41.7300	-1.7300
			CHANNELS 3 Xrotation Yrotation Zrotation
			JOINT LeftFoot
			{
				OFFSET	0.0126	-39.1900	-0.8477
				CHANNELS 3 Xrotation Yrotation Zrotation
				JOINT LeftToeBase
				{
					OFFSET	-0.1833	-12.1931	8.2823
					CHANNELS 3 Xrotation Yrotation Zrotation
					End Site
					{
						OFFSET 0.0000 0.0000 10.1681
					}
				}
			}
		}
	}
	JOINT RightUpLeg
	{
		OFFSET	-9.6338	-3.2733	0.0000
		CHANNELS 3 Xrotation Yrotation Zrotation
		JOINT RightLeg
		{
			OFFSET	0.0000	-41.7300	-1.7300
			CHANNELS 3 Xrotation Yrotation Zrotation
			JOINT RightFoot
			{
				OFFSET	0.0126	-39.1900	-0.8477
				CHANNELS 3 Xrotation Yrotation Zrotation
				JOINT RightToeBase
				{
					OFFSET	-0.1833	-12.1931	8.2823
					CHANNELS 3 Xrotation Yrotation Zrotation
					End Site
					{
						OFFSET 0.0032 0.0000 10.1681
					}
				}
			}
		}
	}
}
MOTION
Frames: 9
Frame Time: 0.0333333
-57.8253 81.7858 -86.2961 95.6963 3.8699 10.3163 6.5564 -0.4265 0.3490 13.1197 -0.5409 1.3115 13.1197 -0.5409 1.3115 -4.0148 -4.3598 -1.3188 -0.0000 0.0000 -0.0000 -35.3922 -9.0929 5.8742 11.6026 1.1970 22.3295 -38.3166 -18.5114 -48.0263 -0.5482 1.8973 -106.1277 82.1205 64.8655 -18.4182 -11.9512 30.8290 -9.4853 0.8302 -3.9974 -8.2937 3.6508 -3.2616 -4.2510 -38.8364 -7.5796 2.5475 -31.8548 1.2185 -4.5358 0.0000 -0.0000 -0.0000 -18.8864 -7.8542 6.9251 -45.7003 9.6684 -1.2335 -0.0000 -0.0000 -0.0000 -38.4521 5.2927 -4.7841 -36.4102 -4.0821 -11.0927 -0.0000 -0.0000 -0.0000 -31.2500 -0.0374 -9.1657 -37.3411 -5.6383 -10.8496 -0.0000 -0.0000 -0.0000 -11.0554 5.3093 39.1446 40.1271 10.4364 76.6717 -0.0901 -1.2917 94.0006 0.4204 -14.8244 -84.8751 17.9596 38.2148 0.0053 7.0902 2.2358 -13.3847 -3.1411 -3.0303 4.2393 3.7617 -5.5641 0.4936 25.9208 -0.1315 0.6218 0.0000 0.0000 -0.0000 3.5583 -0.5903 -4.5274 31.9311 1.1446 4.3295 0.0000 -0.0000 0.0000 4.2519 -1.5394 -2.2347 18.2531 0.1037 1.5631 -0.0000 0.0000 -0.0000 -0.3093 2.6537 -5.5937 14.8405 0.2802 2.6875 0.0000 0.0000 -0.0000 -51.9630 0.2038 -10.9997 72.7302 -0.6012 -2.1027 -8.3146 -3.8858 2.9816 -13.0090 -4.1278 3.6407 -45.8396 4.8417 -46.0196 56.5446 -0.1219 1.8762 -3.4573 -26.2070 -1.0252 0.7194 2.6254 -2.3301 
-61.0833 82.6180 -89.3952 98.9148 4.9448 8.3201 7.1852 -0.4381 0.8563 14.3779 -0.5171 2.1216 14.3779 -0.5171 2.1216 -4.5328 -7.3876 -2.3342 -0.0000 0.0000 -0.0000 -34.9322 -14.3481 8.1222 9.6848 1.3926 15.2784 -33.0689 -28.9842 -42.9938 -0.6161 1.8744 -108.2099 66.5080 69.4708 -32.8386 -11.9513 30.8290 -9.4853 0.8302 -3.9974 -8.2937 3.6508 -3.2616 -4.2510 -38.8364 -7.5796 2.5475 -31.8548 1.2186 -4.5358 -0.0000 -0.0000 -0.0000 -18.8864 -7.8542 6.9251 -45.7003 9.6684 -1.2335 -0.0000 -0.0000 -0.0000 -38.4521 5.2928 -4.7841 -36.4102 -4.0821 -11.0927 -0.0000 0.0000 0.0000 -31.2500 -0.0373 -9.1656 -37.3411 -5.6383 -10.8496 -0.0000 -0.0000 0.0000 -9.8972 5.9877 38.5960 40.5048 9.1409 80.8881 0.0075 -1.2288 89.6640 1.2729 -10.8400 -80.9176 17.9597 38.2148 0.0053 7.0902 2.2358 -13.3847 -3.1411 -3.0303 4.2393 3.7617 -5.5641 0.4936 25.9208 -0.1315 0.6218 -0.0000 0.0000 -0.0000 3.5583 -0.5903 -4.5273 31.9311 1.1446 4.3295 -0.0000 0.0000 0.0000 4.2519 -1.5394 -2.2347 18.2531 0.1037 1.5631 0.0000 0.0000 0.0000 -0.3093 2.6537 -5.5937 14.8405 0.2802 2.6875 -0.0000 0.0000 -0.0000 -54.4588 0.3950 -11.8225 69.6712 -0.7172 -2.0502 -3.7804 -5.8918 3.6246 -12.0191 -4.2433 3.7056 -53.4682 -0.1215 -42.6231 70.9883 0.4363 2.1740 -6.4221 -28.5508 -5.6906 2.9234 1.5551 -1.2512 
-64.1903 83.8596 -92.3412 101.5114 6.1576 7.1199 7.6503 -0.4059 1.1498 15.3067 -0.4618 2.4882 15.3067 -0.4618 2.4882 -4.9515 -10.4020 -3.2658 -0.0000 0.0000 -0.0000 -32.2690 -19.1997 10.1618 8.4121 1.6703 10.2723 -29.5171 -35.1149 -39.5635 -0.6778 1.8128 -110.5146 43.1058 70.2367 -57.1519 -11.9512 30.8290 -9.4853 0.8302 -3.9974 -8.2936 3.6508 -3.2616 -4.2510 -38.8364 -7.5796 2.5475 -31.8548 1.2186 -4.5358 -0.0000 0.0000 0.0000 -18.8864 -7.8542 6.9251 -45.7003 9.6684 -1.2335 -0.0000 0.0000 -0.0000 -38.4521 5.2928 -4.7841 -36.4102 -4.0821 -11.0927 -0.0000 -0.0000 -0.0000 -31.2500 -0.0373 -9.1656 -37.3411 -5.6383 -10.8496 -0.0000 0.0000 -0.0000 -9.3944 6.2690 38.0652 40.8240 8.5998 82.2112 0.0261 -1.1736 88.7402 0.8910 -9.8398 -77.2102 17.9597 38.2148 0.0053 7.0902 2.2358 -13.3847 -3.1411 -3.0303 4.2393 3.7617 -5.5641 0.4936 25.9208 -0.1315 0.6218 -0.0000 0.0000 0.0000 3.5583 -0.5903 -4.5273 31.9311 1.1446 4.3295 -0.0000 0.0000 -0.0000 4.2519 -1.5394 -2.2347 18.2531 0.1036 1.5631 0.0000 0.0000 -0.0000 -0.3093 2.6537 -5.5937 14.8405 0.2802 2.6875 0.0000 -0.0000 -0.0000 -55.1205 2.4668 -12.0095 64.7619 -0.8364 -1.9535 1.4034 -9.0432 5.2033 -10.5402 -4.7121 4.0414 -60.1904 -7.2629 -39.8741 84.1039 1.1703 2.3285 -10.0319 -30.4741 -6.3554 5.6809 1.2900 -0.8131 
-67.2204 85.2264 -95.2842 103.0111 7.3792 6.9695 7.9641 -0.3279 1.2371 15.9319 -0.3651 2.4587 15.9319 -0.3651 2.4587 -5.2323 -13.0529 -4.0005 -0.0000 0.0000 -0.0000 -29.0393 -22.5964 10.9901 8.9130 2.0863 9.0402 -31.7034 -36.8146 -39.5349 -0.7519 1.7547 -113.2114 33.9465 69.3104 -66.7767 -11.9512 30.8290 -9.4853 0.8303 -3.9975 -8.2936 3.6508 -3.2616 -4.2510 -38.8364 -7.5796 2.5475 -31.8548 1.2185 -4.5358 -0.0000 0.0000 -0.0000 -18.8864 -7.8542 6.9251 -45.7003 9.6683 -1.2335 -0.0000 0.0000 0.0000 -38.4521 5.2928 -4.7841 -36.4102 -4.0821 -11.0927 0.0000 0.0000 -0.0000 -31.2500 -0.0373 -9.1656 -37.3411 -5.6383 -10.8496 0.0000 0.0000 -0.0000 -10.1880 5.8276 37.6135 41.5446 9.0396 81.7792 -0.0147 -1.1284 90.7620 0.0125 -12.1504 -74.0217 17.9597 38.2148 0.0053 7.0902 2.2358 -13.3847 -3.1411 -3.0303 4.2392 3.7617 -5.5641 0.4936 25.9208 -0.1315 0.6218 -0.0000 0.0000 -0.0000 3.5583 -0.5903 -4.5274 31.9311 1.1446 4.3295 0.0000 0.0000 0.0000 4.2519 -1.5394 -2.2347 18.2531 0.1036 1.5631 -0.0000 0.0000 -0.0000 -0.3093 2.6537 -5.5937 14.8405 0.2802 2.6875 -0.0000 0.0000 -0.0000 -54.3644 7.5665 -11.4341 58.1220 -0.9644 -1.8045 9.6711 -14.3405 6.1042 -9.2743 -5.4699 4.6302 -65.2307 -15.2453 -37.6704 92.8040 1.8409 2.3689 -10.4476 -29.4620 -5.5544 6.0427 3.0169 -2.5226 
-70.1919 86.4582 -98.2426 103.3759 8.8431 7.0573 8.1262 -0.1732 1.1684 16.2534 -0.1913 2.1054 16.2534 -0.1913 2.1054 -5.2927 -14.9580 -4.4113 -0.0000 0.0000 -0.0000 -26.4594 -24.7469 11.0704 9.6379 2.5276 9.6752 -36.4449 -36.1339 -41.1308 -0.8679 1.6958 -117.1198 41.0943 71.5587 -58.7612 -11.9512 30.8290 -9.4853 0.8302 -3.9974 -8.2937 3.6508 -3.2616 -4.2510 -38.8364 -7.5796 2.5475 -31.8548 1.2185 -4.5358 -0.0000 0.0000 0.0000 -18.8864 -7.8542 6.9251 -45.7003 9.6683 -1.2335 0.0000 0.0000 -0.0000 -38.4521 5.2928 -4.7841 -36.4102 -4.0822 -11.0927 -0.0000 0.0000 -0.0000 -31.2500 -0.0373 -9.1656 -37.3411 -5.6383 -10.8496 -0.0000 0.0000 0.0000 -11.5739 5.0662 37.1897 41.7950 10.3569 80.3505 -0.0859 -1.0743 94.5881 -2.5993 -16.4179 -70.0289 17.9596 38.2148 0.0053 7.0902 2.2358 -13.3847 -3.1411 -3.0303 4.2393 3.7617 -5.5641 0.4936 25.9208 -0.1315 0.6218 0.0000 0.0000 -0.0000 3.5583 -0.5903 -4.5274 31.9311 1.1446 4.3294 -0.0000 0.0000 0.0000 4.2519 -1.5394 -2.2347 18.2531 0.1036 1.5631 -0.0000 -0.0000 -0.0000 -0.3093 2.6537 -5.5937 14.8405 0.2801 2.6875 -0.0000 0.0000 0.0000 -53.5441 14.0198 -9.6789 50.1800 -1.1925 -1.6043 21.5565 -22.1483 0.1703 -8.0525 -5.0165 4.4596 -68.2860 -23.7816 -35.1964 96.0557 2.2812 2.3771 -6.4852 -26.9483 -4.7370 6.5633 5.5167 -5.0264 
-72.9959 87.2969 -101.2043 103.0188 10.6750 6.2611 8.0828 0.1174 1.1703 16.1652 0.1166 1.7568 16.1652 0.1166 1.7568 -5.1209 -16.0450 -4.4987 -0.0000 0.0000 -0.0000 -24.6563 -25.9704 11.3407 9.1180 2.6711 10.3647 -39.3584 -35.2801 -42.1519 -1.0073 1.6351 -121.6523 61.2435 74.0621 -36.0114 -11.9512 30.8290 -9.4853 0.8303 -3.9975 -8.2936 3.6508 -3.2616 -4.2510 -38.8364 -7.5796 2.5475 -31.8548 1.2185 -4.5358 -0.0000 -0.0000 -0.0000 -18.8864 -7.8542 6.9251 -45.7003 9.6683 -1.2335 0.0000 0.0000 -0.0000 -38.4521 5.2928 -4.7841 -36.4102 -4.0821 -11.0927 0.0000 0.0000 0.0000 -31.2500 -0.0373 -9.1656 -37.3411 -5.6383 -10.8496 -0.0000 -0.0000 0.0000 -12.7327 4.4257 36.8199 41.0305 12.1085 79.1593 -0.1442 -1.0162 98.0920 -6.8785 -19.9703 -64.9359 17.9597 38.2148 0.0053 7.0902 2.2358 -13.3847 -3.1411 -3.0303 4.2393 3.7617 -5.5641 0.4936 25.9208 -0.1315 0.6218 -0.0000 0.0000 -0.0000 3.5583 -0.5903 -4.5274 31.9311 1.1446 4.3295 0.0000 0.0000 0.0000 4.2519 -1.5394 -2.2347 18.2531 0.1036 1.5631 -0.0000 0.0000 -0.0000 -0.3093 2.6537 -5.5937 14.8405 0.2802 2.6875 0.0000 0.0000 -0.0000 -53.4670 19.5828 -6.2698 41.7370 -1.4572 -1.3679 31.7442 -29.1412 -15.4086 -6.6062 -3.5853 3.0258 -67.6087 -32.8052 -30.8166 93.4589 2.4083 2.3901 -2.0264 -24.2447 -3.6242 6.5071 6.6089 -6.1336 
-75.5763 87.5910 -104.2436 102.9532 12.2807 5.3886 7.9912 0.4285 1.1767 15.9848 0.4099 1.3752 15.9848 0.4098 1.3752 -5.5732 -14.4401 -5.6186 -0.0000 0.0000 -0.0000 -23.7264 -22.4106 10.4941 7.3877 2.3692 10.0117 -40.3446 -34.6384 -43.6579 -1.1437 1.5893 -125.7578 86.0123 73.0794 -7.7744 -11.9512 30.8290 -9.4853 0.8303 -3.9974 -8.2937 3.6508 -3.2616 -4.2510 -38.8364 -7.5796 2.5475 -31.8548 1.2185 -4.5358 0.0000 0.0000 -0.0000 -18.8864 -7.8542 6.9251 -45.7003 9.6683 -1.2335 0.0000 0.0000 -0.0000 -38.4521 5.2928 -4.7841 -36.4102 -4.0821 -11.0927 0.0000 0.0000 -0.0000 -31.2500 -0.0374 -9.1656 -37.3411 -5.6383 -10.8496 -0.0000 0.0000 0.0000 -13.1290 4.1760 36.5431 39.7037 13.4978 77.6249 -0.1935 -0.9614 101.3977 -12.1647 -22.9953 -58.6585 17.9596 38.2148 0.0053 7.0902 2.2357 -13.3847 -3.1411 -3.0303 4.2393 3.7617 -5.5641 0.4936 25.9208 -0.1315 0.6218 0.0000 -0.0000 0.0000 3.5583 -0.5903 -4.5274 31.9311 1.1446 4.3295 0.0000 0.0000 -0.0000 4.2519 -1.5394 -2.2347 18.2531 0.1036 1.5631 0.0000 -0.0000 0.0000 -0.3093 2.6537 -5.5937 14.8405 0.2802 2.6875 0.0000 -0.0000 0.0000 -55.3035 22.0098 -2.8048 38.0983 -1.6262 -1.2608 34.5529 -29.0907 -29.8184 -7.1262 -5.0142 4.2438 -61.5810 -40.5192 -23.6894 85.1232 2.2408 2.3753 -1.5881 -21.3687 -3.0723 1.6451 5.5893 -5.0336 
-78.1475 87.4066 -107.4898 103.7829 12.8121 6.0996 7.9966 0.5102 0.8994 15.9978 0.5523 0.8007 15.9978 0.5523 0.8007 -6.1668 -12.4117 -6.7090 -0.0000 0.0000 -0.0000 -24.0080 -18.5665 9.6157 5.5680 1.9156 8.9351 -41.8744 -32.7819 -46.8247 -1.2079 1.5423 -128.0861 98.2248 68.4046 7.9039 -11.9512 30.8290 -9.4853 0.8302 -3.9974 -8.2937 3.6508 -3.2616 -4.2510 -38.8364 -7.5796 2.5475 -31.8548 1.2186 -4.5358 -0.0000 -0.0000 -0.0000 -18.8864 -7.8542 6.9251 -45.7003 9.6683 -1.2335 -0.0000 0.0000 0.0000 -38.4521 5.2928 -4.7841 -36.4102 -4.0821 -11.0927 -0.0000 0.0000 -0.0000 -31.2500 -0.0373 -9.1656 -37.3411 -5.6382 -10.8496 -0.0000 0.0000 0.0000 -12.4181 4.4712 36.3598 38.2330 14.0081 75.0525 -0.2477 -0.9272 104.9791 -16.7915 -27.1909 -52.6854 17.9597 38.2148 0.0053 7.0902 2.2358 -13.3847 -3.1411 -3.0303 4.2393 3.7617 -5.5641 0.4936 25.9208 -0.1315 0.6218 -0.0000 0.0000 -0.0000 3.5583 -0.5903 -4.5274 31.9311 1.1446 4.3295 -0.0000 0.0000 -0.0000 4.2519 -1.5394 -2.2347 18.2531 0.1036 1.5631 0.0000 0.0000 0.0000 -0.3093 2.6537 -5.5937 14.8406 0.2802 2.6875 -0.0000 0.0000 -0.0000 -59.6742 18.5536 -1.1202 43.0058 -1.8860 -1.4184 28.8958 -25.2052 -34.5599 -8.7948 -6.4497 5.4282 -52.5219 -44.2608 -16.0757 73.9091 1.8603 2.2702 -9.4212 -18.8689 -6.1279 -4.5070 3.2718 -3.0500 
-80.7724 86.3572 -111.0411 104.5205 12.3720 8.2795 8.2469 0.3511 0.3195 16.4975 0.4231 -0.0762 16.4974 0.4231 -0.0761 -7.0042 -10.0648 -7.8212 -0.0000 0.0000 -0.0000 -25.5466 -14.0099 7.9366 3.9855 1.4791 7.9633 -43.1095 -30.8258 -49.3959 -1.1725 1.4587 -128.8104 101.4153 63.8378 12.5341 -11.9512 30.8290 -9.4853 0.8303 -3.9975 -8.2936 3.6508 -3.2616 -4.2510 -38.8364 -7.5796 2.5475 -31.8548 1.2185 -4.5358 -0.0000 0.0000 0.0000 -18.8864 -7.8542 6.9251 -45.7003 9.6684 -1.2335 -0.0000 0.0000 -0.0000 -38.4521 5.2928 -4.7841 -36.4102 -4.0821 -11.0927 0.0000 0.0000 -0.0000 -31.2500 -0.0374 -9.1656 -37.3411 -5.6383 -10.8496 -0.0000 -0.0000 0.0000 -10.8177 5.1902 36.1829 36.4223 13.9653 73.1329 -0.2811 -0.9043 107.2904 -19.3350 -31.0113 -49.0221 17.9597 38.2148 0.0053 7.0902 2.2358 -13.3847 -3.1411 -3.0303 4.2393 3.7617 -5.5641 0.4936 25.9208 -0.1315 0.6218 -0.0000 -0.0000 0.0000 3.5583 -0.5903 -4.5274 31.9311 1.1446 4.3295 -0.0000 -0.0000 -0.0000 4.2519 -1.5394 -2.2347 18.2531 0.1037 1.5631 0.0000 -0.0000 0.0000 -0.3093 2.6537 -5.5937 14.8405 0.2802 2.6875 -0.0000 0.0000 0.0000 -64.7951 11.8027 -1.2351 52.8218 -2.1705 -1.7039 19.2645 -22.1469 -31.5259 -10.1347 -6.2667 5.2703 -46.0004 -43.6836 -11.4811 65.3342 1.4904 2.1277 -24.1390 -17.0609 -13.8622 -1.2319 0.2313 -0.3353 
